<?xml version="1.0" encoding="utf-8"?>
<!-- Generator: Adobe Illustrator 17.1.0, SVG Export Plug-In . SVG Version: 6.00 Build 0)  -->
<!DOCTYPE svg PUBLIC "-//W3C//DTD SVG 1.1//EN" "http://www.w3.org/Graphics/SVG/1.1/DTD/svg11.dtd">
<svg version="1.1" id="magnifier" xmlns="http://www.w3.org/2000/svg" xmlns:xlink="http://www.w3.org/1999/xlink" x="0px" y="0px"
	 viewBox="0 0 1024 1024" enable-background="new 0 0 1024 1024" xml:space="preserve">
<rect id="magnifier-label" fill="#F2F7FD" width="1024" height="1024"/>
<g id="magnifier-magnifier">
	<path fill="#FFFFFF" d="M486.2998,538.1855c-64.6284-64.3496-64.8569-168.9355-0.5-233.5644
		c64.3574-64.6357,168.9434-64.8496,233.5713-0.4927"/>
	<path fill="#D0E8F9" d="M719.3711,304.1284c64.6435,64.3716,64.8574,168.9429,0.4863,233.5855
		c-64.3428,64.6289-168.9139,64.8427-233.5576,0.4716"/>
	<g>
		<path fill="#0096E6" d="M602.8281,599.1143c-98.1279,0-177.9565-79.8291-177.9565-177.9502
			c0-98.1285,79.8286-177.9571,177.9565-177.9571c98.1289,0,177.9717,79.8286,177.9717,177.9571
			C780.7998,519.2852,700.957,599.1143,602.8281,599.1143L602.8281,599.1143z M602.8281,268.8071
			c-84.0068,0-152.3564,68.3501-152.3564,152.357c0,84.0073,68.3496,152.3496,152.3564,152.3496
			c84.0147,0,152.3721-68.3423,152.3721-152.3496C755.2002,337.1572,686.8428,268.8071,602.8281,268.8071L602.8281,268.8071z"/>
	</g>
	<g>
		<polygon fill="#0096E6" points="446.7217,595.3711 428.6216,577.2568 478.1787,527.7139 496.2783,545.8281 446.7217,595.3711 		
			"/>
	</g>
	<g>
		<polygon fill="#FFFFFF" points="412.8857,561.543 462.4287,611.0859 305.543,768 256,718.457 		"/>
		<path fill="#0096E6" d="M305.543,786.0996l-67.6426-67.6426l174.9853-175.0135l67.6426,67.6425L305.543,786.0996L305.543,786.0996
			z M274.1001,718.457l31.4429,31.4434l138.7856-138.8145l-31.4429-31.4433L274.1001,718.457L274.1001,718.457z"/>
	</g>
</g>
</svg>
